<svg width="128" height="107" viewBox="0 0 128 107" fill="none" xmlns="http://www.w3.org/2000/svg">
    <path d="M24.4738 106.146C16.6768 106.146 10.6125 103.909 6.28088 99.4335C2.09363 94.8185 0 88.1057 0 79.2951V24.7535C0 16.5023 2.16582 10.3489 6.49746 6.29326C10.9735 2.09776 17.1822 0 25.1235 0C25.8455 0 26.4952 0.0699206 27.0728 0.209769C27.6503 0.209769 28.3001 0.209769 29.022 0.209769V73.4214C29.022 75.0996 29.0942 76.7079 29.2386 78.2462C29.5274 79.7846 29.9605 81.1831 30.5381 82.4417C31.26 83.5605 32.1985 84.5395 33.3536 85.3786C34.6531 86.0778 36.3858 86.4275 38.5516 86.4275C39.7067 86.4275 40.8618 86.2876 42.0169 86.0079C43.3164 85.5884 44.4715 84.959 45.4822 84.1199C46.0598 85.2387 46.4208 86.3575 46.5651 87.4763C46.7095 88.4553 46.7817 89.5042 46.7817 90.623C46.7817 95.0982 44.6881 98.8042 40.5008 101.741C36.3136 104.678 30.9712 106.146 24.4738 106.146ZM98.978 24.1242C98.978 19.7888 99.6999 16.1527 101.144 13.2159C102.732 10.1392 104.754 7.62184 107.208 5.66393C109.807 3.70603 112.695 2.30752 115.871 1.46842C119.192 0.48947 122.585 0 126.051 0H128V58.5273C128 69.8552 125.545 77.8966 120.636 82.6515C115.727 87.4064 108.508 89.7839 98.978 89.7839V24.1242ZM74.9374 106.146C58.044 106.146 49.5973 97.1959 49.5973 79.2951V24.7535C49.5973 16.5023 51.7631 10.3489 56.0948 6.29326C60.5708 2.09776 66.7795 0 74.7208 0C75.4428 0 76.0925 0.0699206 76.67 0.209769C77.2476 0.209769 77.8974 0.209769 78.6193 0.209769V73.4214C78.6193 75.0996 78.6915 76.7079 78.8359 78.2462C79.1246 79.7846 79.5578 81.1831 80.1354 82.4417C80.8573 83.5605 81.7958 84.5395 82.9509 85.3786C84.2504 86.0778 85.9831 86.4275 88.1489 86.4275C89.304 86.4275 90.5313 86.2876 91.8308 86.0079C93.1303 85.5884 94.2132 84.959 95.0795 84.1199C95.5127 85.0989 95.8015 86.1478 95.9459 87.2666C96.2346 88.3854 96.379 89.3643 96.379 90.2034C96.379 95.3779 94.2854 99.3636 90.0981 102.161C86.0553 104.818 81.0017 106.146 74.9374 106.146Z" fill="#ffffff"/>
</svg>
